<svg width="328" height="1200" viewBox="0 0 328 1200" fill="none" xmlns="http://www.w3.org/2000/svg">
<g clip-path="url(#clip0_0_3)">
<path d="M0 20L0 1180C0 1191.05 8.9543 1200 20 1200H308C319.046 1200 328 1191.05 328 1180L328 20C328 8.95435 319.046 0 308 0H20C8.9543 0 0 8.95435 0 20Z" fill="#2752E7"/>
<path d="M875 101.5C875 -152.827 668.827 -359 414.5 -359C160.173 -359 -46 -152.827 -46 101.5C-46 355.827 160.173 562 414.5 562C668.827 562 875 355.827 875 101.5Z" fill="#4B82EF"/>
<path d="M113.5 1189.5C113.5 1125.16 61.3412 1073 -3 1073C-67.3412 1073 -119.5 1125.16 -119.5 1189.5C-119.5 1253.84 -67.3412 1306 -3 1306C61.3412 1306 113.5 1253.84 113.5 1189.5Z" fill="#406EEC"/>
<path d="M571.5 600C571.5 481.535 475.465 385.5 357 385.5C238.535 385.5 142.5 481.535 142.5 600C142.5 718.465 238.535 814.5 357 814.5C475.465 814.5 571.5 718.465 571.5 600Z" stroke="#D0DBFF"/>
<path d="M141.5 74C141.5 -1.93915 79.9391 -63.5 4 -63.5C-71.9392 -63.5 -133.5 -1.93915 -133.5 74C-133.5 149.939 -71.9392 211.5 4 211.5C79.9391 211.5 141.5 149.939 141.5 74Z" stroke="#D0DBFF"/>
<path d="M142 337.125V337.413C142 338.842 143.158 340 144.587 340H144.875C146.304 340 147.463 338.842 147.463 337.413V337.125C147.463 335.696 146.304 334.537 144.875 334.537H144.587C143.158 334.537 142 335.696 142 337.125Z" fill="#7D97F1"/>
<path d="M142 315.273V315.561C142 316.99 143.158 318.148 144.587 318.148H144.875C146.304 318.148 147.463 316.99 147.463 315.561V315.273C147.463 313.844 146.304 312.685 144.875 312.685H144.587C143.158 312.685 142 313.844 142 315.273Z" fill="#7D97F1"/>
<path d="M142 293.423V293.711C142 295.14 143.158 296.298 144.587 296.298H144.875C146.304 296.298 147.463 295.14 147.463 293.711V293.423C147.463 291.994 146.304 290.835 144.875 290.835H144.587C143.158 290.835 142 291.994 142 293.423Z" fill="#7D97F1"/>
<path d="M142 271.573V271.861C142 273.29 143.158 274.448 144.587 274.448H144.875C146.304 274.448 147.463 273.29 147.463 271.861V271.573C147.463 270.144 146.304 268.985 144.875 268.985H144.587C143.158 268.985 142 270.144 142 271.573Z" fill="#7D97F1"/>
<path d="M142 249.723V250.011C142 251.44 143.158 252.598 144.587 252.598H144.875C146.304 252.598 147.463 251.44 147.463 250.011V249.723C147.463 248.294 146.304 247.135 144.875 247.135H144.587C143.158 247.135 142 248.294 142 249.723Z" fill="#7D97F1"/>
<path d="M142 227.871V228.159C142 229.588 143.158 230.746 144.587 230.746H144.875C146.304 230.746 147.463 229.588 147.463 228.159V227.871C147.463 226.442 146.304 225.283 144.875 225.283H144.587C143.158 225.283 142 226.442 142 227.871Z" fill="#7D97F1"/>
<path d="M142 206.02V206.308C142 207.737 143.158 208.895 144.587 208.895H144.875C146.304 208.895 147.463 207.737 147.463 206.308V206.02C147.463 204.591 146.304 203.432 144.875 203.432H144.587C143.158 203.432 142 204.591 142 206.02Z" fill="#7D97F1"/>
<path d="M142 184.165V184.453C142 185.882 143.158 187.04 144.587 187.04H144.875C146.304 187.04 147.463 185.882 147.463 184.453V184.165C147.463 182.736 146.304 181.577 144.875 181.577H144.587C143.158 181.577 142 182.736 142 184.165Z" fill="#7D97F1"/>
<path d="M142 162.315V162.603C142 164.032 143.158 165.19 144.587 165.19H144.875C146.304 165.19 147.463 164.032 147.463 162.603V162.315C147.463 160.886 146.304 159.727 144.875 159.727H144.587C143.158 159.727 142 160.886 142 162.315Z" fill="#7D97F1"/>
<path d="M142 140.465V140.753C142 142.182 143.158 143.34 144.587 143.34H144.875C146.304 143.34 147.463 142.182 147.463 140.753V140.465C147.463 139.036 146.304 137.877 144.875 137.877H144.587C143.158 137.877 142 139.036 142 140.465Z" fill="#7D97F1"/>
<path d="M163.851 337.125V337.413C163.851 338.842 165.009 340 166.438 340H166.726C168.155 340 169.314 338.842 169.314 337.413V337.125C169.314 335.696 168.155 334.537 166.726 334.537H166.438C165.009 334.537 163.851 335.696 163.851 337.125Z" fill="#7D97F1"/>
<path d="M163.851 315.273V315.561C163.851 316.99 165.009 318.148 166.438 318.148H166.726C168.155 318.148 169.314 316.99 169.314 315.561V315.273C169.314 313.844 168.155 312.685 166.726 312.685H166.438C165.009 312.685 163.851 313.844 163.851 315.273Z" fill="#7D97F1"/>
<path d="M163.851 293.423V293.711C163.851 295.14 165.009 296.298 166.438 296.298H166.726C168.155 296.298 169.314 295.14 169.314 293.711V293.423C169.314 291.994 168.155 290.835 166.726 290.835H166.438C165.009 290.835 163.851 291.994 163.851 293.423Z" fill="#7D97F1"/>
<path d="M163.851 271.573V271.861C163.851 273.29 165.009 274.448 166.438 274.448H166.726C168.155 274.448 169.314 273.29 169.314 271.861V271.573C169.314 270.144 168.155 268.985 166.726 268.985H166.438C165.009 268.985 163.851 270.144 163.851 271.573Z" fill="#7D97F1"/>
<path d="M163.851 249.723V250.011C163.851 251.44 165.009 252.598 166.438 252.598H166.726C168.155 252.598 169.314 251.44 169.314 250.011V249.723C169.314 248.294 168.155 247.135 166.726 247.135H166.438C165.009 247.135 163.851 248.294 163.851 249.723Z" fill="#7D97F1"/>
<path d="M163.851 227.871V228.159C163.851 229.588 165.009 230.746 166.438 230.746H166.726C168.155 230.746 169.314 229.588 169.314 228.159V227.871C169.314 226.442 168.155 225.283 166.726 225.283H166.438C165.009 225.283 163.851 226.442 163.851 227.871Z" fill="#7D97F1"/>
<path d="M163.851 206.02V206.308C163.851 207.737 165.009 208.895 166.438 208.895H166.726C168.155 208.895 169.314 207.737 169.314 206.308V206.02C169.314 204.591 168.155 203.432 166.726 203.432H166.438C165.009 203.432 163.851 204.591 163.851 206.02Z" fill="#7D97F1"/>
<path d="M163.851 184.165V184.453C163.851 185.882 165.009 187.04 166.438 187.04H166.726C168.155 187.04 169.314 185.882 169.314 184.453V184.165C169.314 182.736 168.155 181.577 166.726 181.577H166.438C165.009 181.577 163.851 182.736 163.851 184.165Z" fill="#7D97F1"/>
<path d="M163.851 162.315V162.603C163.851 164.032 165.009 165.19 166.438 165.19H166.726C168.155 165.19 169.314 164.032 169.314 162.603V162.315C169.314 160.886 168.155 159.727 166.726 159.727H166.438C165.009 159.727 163.851 160.886 163.851 162.315Z" fill="#7D97F1"/>
<path d="M163.851 140.465V140.753C163.851 142.182 165.009 143.34 166.438 143.34H166.726C168.155 143.34 169.314 142.182 169.314 140.753V140.465C169.314 139.036 168.155 137.877 166.726 137.877H166.438C165.009 137.877 163.851 139.036 163.851 140.465Z" fill="#7D97F1"/>
<path d="M185.701 337.125V337.413C185.701 338.842 186.859 340 188.288 340H188.576C190.005 340 191.164 338.842 191.164 337.413V337.125C191.164 335.696 190.005 334.537 188.576 334.537H188.288C186.859 334.537 185.701 335.696 185.701 337.125Z" fill="#7D97F1"/>
<path d="M185.701 315.273V315.561C185.701 316.99 186.859 318.148 188.288 318.148H188.576C190.005 318.148 191.164 316.99 191.164 315.561V315.273C191.164 313.844 190.005 312.685 188.576 312.685H188.288C186.859 312.685 185.701 313.844 185.701 315.273Z" fill="#7D97F1"/>
<path d="M185.701 293.423V293.711C185.701 295.14 186.859 296.298 188.288 296.298H188.576C190.005 296.298 191.164 295.14 191.164 293.711V293.423C191.164 291.994 190.005 290.835 188.576 290.835H188.288C186.859 290.835 185.701 291.994 185.701 293.423Z" fill="#7D97F1"/>
<path d="M185.701 271.573V271.861C185.701 273.29 186.859 274.448 188.288 274.448H188.576C190.005 274.448 191.164 273.29 191.164 271.861V271.573C191.164 270.144 190.005 268.985 188.576 268.985H188.288C186.859 268.985 185.701 270.144 185.701 271.573Z" fill="#7D97F1"/>
<path d="M185.701 249.723V250.011C185.701 251.44 186.859 252.598 188.288 252.598H188.576C190.005 252.598 191.164 251.44 191.164 250.011V249.723C191.164 248.294 190.005 247.135 188.576 247.135H188.288C186.859 247.135 185.701 248.294 185.701 249.723Z" fill="#7D97F1"/>
<path d="M185.701 227.871V228.159C185.701 229.588 186.859 230.746 188.288 230.746H188.576C190.005 230.746 191.164 229.588 191.164 228.159V227.871C191.164 226.442 190.005 225.283 188.576 225.283H188.288C186.859 225.283 185.701 226.442 185.701 227.871Z" fill="#7D97F1"/>
<path d="M185.701 206.02V206.308C185.701 207.737 186.859 208.895 188.288 208.895H188.576C190.005 208.895 191.164 207.737 191.164 206.308V206.02C191.164 204.591 190.005 203.432 188.576 203.432H188.288C186.859 203.432 185.701 204.591 185.701 206.02Z" fill="#7D97F1"/>
<path d="M185.701 184.165V184.453C185.701 185.882 186.859 187.04 188.288 187.04H188.576C190.005 187.04 191.164 185.882 191.164 184.453V184.165C191.164 182.736 190.005 181.577 188.576 181.577H188.288C186.859 181.577 185.701 182.736 185.701 184.165Z" fill="#7D97F1"/>
<path d="M185.701 162.315V162.603C185.701 164.032 186.859 165.19 188.288 165.19H188.576C190.005 165.19 191.164 164.032 191.164 162.603V162.315C191.164 160.886 190.005 159.727 188.576 159.727H188.288C186.859 159.727 185.701 160.886 185.701 162.315Z" fill="#7D97F1"/>
<path d="M185.701 140.465V140.753C185.701 142.182 186.859 143.34 188.288 143.34H188.576C190.005 143.34 191.164 142.182 191.164 140.753V140.465C191.164 139.036 190.005 137.877 188.576 137.877H188.288C186.859 137.877 185.701 139.036 185.701 140.465Z" fill="#7D97F1"/>
<path d="M207.553 337.125V337.413C207.553 338.842 208.711 340 210.14 340H210.428C211.857 340 213.016 338.842 213.016 337.413V337.125C213.016 335.696 211.857 334.537 210.428 334.537H210.14C208.711 334.537 207.553 335.696 207.553 337.125Z" fill="#7D97F1"/>
<path d="M207.553 315.273V315.561C207.553 316.99 208.711 318.148 210.14 318.148H210.428C211.857 318.148 213.016 316.99 213.016 315.561V315.273C213.016 313.844 211.857 312.685 210.428 312.685H210.14C208.711 312.685 207.553 313.844 207.553 315.273Z" fill="#7D97F1"/>
<path d="M207.553 293.423V293.711C207.553 295.14 208.711 296.298 210.14 296.298H210.428C211.857 296.298 213.016 295.14 213.016 293.711V293.423C213.016 291.994 211.857 290.835 210.428 290.835H210.14C208.711 290.835 207.553 291.994 207.553 293.423Z" fill="#7D97F1"/>
<path d="M207.553 271.573V271.861C207.553 273.29 208.711 274.448 210.14 274.448H210.428C211.857 274.448 213.016 273.29 213.016 271.861V271.573C213.016 270.144 211.857 268.985 210.428 268.985H210.14C208.711 268.985 207.553 270.144 207.553 271.573Z" fill="#7D97F1"/>
<path d="M207.553 249.723V250.011C207.553 251.44 208.711 252.598 210.14 252.598H210.428C211.857 252.598 213.016 251.44 213.016 250.011V249.723C213.016 248.294 211.857 247.135 210.428 247.135H210.14C208.711 247.135 207.553 248.294 207.553 249.723Z" fill="#7D97F1"/>
<path d="M207.553 227.871V228.159C207.553 229.588 208.711 230.746 210.14 230.746H210.428C211.857 230.746 213.016 229.588 213.016 228.159V227.871C213.016 226.442 211.857 225.283 210.428 225.283H210.14C208.711 225.283 207.553 226.442 207.553 227.871Z" fill="#7D97F1"/>
<path d="M207.553 206.02V206.308C207.553 207.737 208.711 208.895 210.14 208.895H210.428C211.857 208.895 213.016 207.737 213.016 206.308V206.02C213.016 204.591 211.857 203.432 210.428 203.432H210.14C208.711 203.432 207.553 204.591 207.553 206.02Z" fill="#7D97F1"/>
<path d="M207.553 184.165V184.453C207.553 185.882 208.711 187.04 210.14 187.04H210.428C211.857 187.04 213.016 185.882 213.016 184.453V184.165C213.016 182.736 211.857 181.577 210.428 181.577H210.14C208.711 181.577 207.553 182.736 207.553 184.165Z" fill="#7D97F1"/>
<path d="M207.553 162.315V162.603C207.553 164.032 208.711 165.19 210.14 165.19H210.428C211.857 165.19 213.016 164.032 213.016 162.603V162.315C213.016 160.886 211.857 159.727 210.428 159.727H210.14C208.711 159.727 207.553 160.886 207.553 162.315Z" fill="#7D97F1"/>
<path d="M207.553 140.465V140.753C207.553 142.182 208.711 143.34 210.14 143.34H210.428C211.857 143.34 213.016 142.182 213.016 140.753V140.465C213.016 139.036 211.857 137.877 210.428 137.877H210.14C208.711 137.877 207.553 139.036 207.553 140.465Z" fill="#7D97F1"/>
<path d="M229.403 337.125V337.413C229.403 338.842 230.561 340 231.99 340H232.278C233.707 340 234.866 338.842 234.866 337.413V337.125C234.866 335.696 233.707 334.537 232.278 334.537H231.99C230.561 334.537 229.403 335.696 229.403 337.125Z" fill="#7D97F1"/>
<path d="M229.403 315.273V315.561C229.403 316.99 230.561 318.148 231.99 318.148H232.278C233.707 318.148 234.866 316.99 234.866 315.561V315.273C234.866 313.844 233.707 312.685 232.278 312.685H231.99C230.561 312.685 229.403 313.844 229.403 315.273Z" fill="#7D97F1"/>
<path d="M229.403 293.423V293.711C229.403 295.14 230.561 296.298 231.99 296.298H232.278C233.707 296.298 234.866 295.14 234.866 293.711V293.423C234.866 291.994 233.707 290.835 232.278 290.835H231.99C230.561 290.835 229.403 291.994 229.403 293.423Z" fill="#7D97F1"/>
<path d="M229.403 271.573V271.861C229.403 273.29 230.561 274.448 231.99 274.448H232.278C233.707 274.448 234.866 273.29 234.866 271.861V271.573C234.866 270.144 233.707 268.985 232.278 268.985H231.99C230.561 268.985 229.403 270.144 229.403 271.573Z" fill="#7D97F1"/>
<path d="M229.403 249.723V250.011C229.403 251.44 230.561 252.598 231.99 252.598H232.278C233.707 252.598 234.866 251.44 234.866 250.011V249.723C234.866 248.294 233.707 247.135 232.278 247.135H231.99C230.561 247.135 229.403 248.294 229.403 249.723Z" fill="#7D97F1"/>
<path d="M229.403 227.871V228.159C229.403 229.588 230.561 230.746 231.99 230.746H232.278C233.707 230.746 234.866 229.588 234.866 228.159V227.871C234.866 226.442 233.707 225.283 232.278 225.283H231.99C230.561 225.283 229.403 226.442 229.403 227.871Z" fill="#7D97F1"/>
<path d="M229.403 206.02V206.308C229.403 207.737 230.561 208.895 231.99 208.895H232.278C233.707 208.895 234.866 207.737 234.866 206.308V206.02C234.866 204.591 233.707 203.432 232.278 203.432H231.99C230.561 203.432 229.403 204.591 229.403 206.02Z" fill="#7D97F1"/>
<path d="M229.403 184.165V184.453C229.403 185.882 230.561 187.04 231.99 187.04H232.278C233.707 187.04 234.866 185.882 234.866 184.453V184.165C234.866 182.736 233.707 181.577 232.278 181.577H231.99C230.561 181.577 229.403 182.736 229.403 184.165Z" fill="#7D97F1"/>
<path d="M229.403 162.315V162.603C229.403 164.032 230.561 165.19 231.99 165.19H232.278C233.707 165.19 234.866 164.032 234.866 162.603V162.315C234.866 160.886 233.707 159.727 232.278 159.727H231.99C230.561 159.727 229.403 160.886 229.403 162.315Z" fill="#7D97F1"/>
<path d="M229.403 140.465V140.753C229.403 142.182 230.561 143.34 231.99 143.34H232.278C233.707 143.34 234.866 142.182 234.866 140.753V140.465C234.866 139.036 233.707 137.877 232.278 137.877H231.99C230.561 137.877 229.403 139.036 229.403 140.465Z" fill="#7D97F1"/>
<path d="M251.254 337.125V337.413C251.254 338.842 252.412 340 253.841 340H254.129C255.558 340 256.717 338.842 256.717 337.413V337.125C256.717 335.696 255.558 334.537 254.129 334.537H253.841C252.412 334.537 251.254 335.696 251.254 337.125Z" fill="#7D97F1"/>
<path d="M251.254 315.273V315.561C251.254 316.99 252.412 318.148 253.841 318.148H254.129C255.558 318.148 256.717 316.99 256.717 315.561V315.273C256.717 313.844 255.558 312.685 254.129 312.685H253.841C252.412 312.685 251.254 313.844 251.254 315.273Z" fill="#7D97F1"/>
<path d="M251.254 293.423V293.711C251.254 295.14 252.412 296.298 253.841 296.298H254.129C255.558 296.298 256.717 295.14 256.717 293.711V293.423C256.717 291.994 255.558 290.835 254.129 290.835H253.841C252.412 290.835 251.254 291.994 251.254 293.423Z" fill="#7D97F1"/>
<path d="M251.254 271.573V271.861C251.254 273.29 252.412 274.448 253.841 274.448H254.129C255.558 274.448 256.717 273.29 256.717 271.861V271.573C256.717 270.144 255.558 268.985 254.129 268.985H253.841C252.412 268.985 251.254 270.144 251.254 271.573Z" fill="#7D97F1"/>
<path d="M251.254 249.723V250.011C251.254 251.44 252.412 252.598 253.841 252.598H254.129C255.558 252.598 256.717 251.44 256.717 250.011V249.723C256.717 248.294 255.558 247.135 254.129 247.135H253.841C252.412 247.135 251.254 248.294 251.254 249.723Z" fill="#7D97F1"/>
<path d="M251.254 227.871V228.159C251.254 229.588 252.412 230.746 253.841 230.746H254.129C255.558 230.746 256.717 229.588 256.717 228.159V227.871C256.717 226.442 255.558 225.283 254.129 225.283H253.841C252.412 225.283 251.254 226.442 251.254 227.871Z" fill="#7D97F1"/>
<path d="M251.254 206.02V206.308C251.254 207.737 252.412 208.895 253.841 208.895H254.129C255.558 208.895 256.717 207.737 256.717 206.308V206.02C256.717 204.591 255.558 203.432 254.129 203.432H253.841C252.412 203.432 251.254 204.591 251.254 206.02Z" fill="#7D97F1"/>
<path d="M251.254 184.165V184.453C251.254 185.882 252.412 187.04 253.841 187.04H254.129C255.558 187.04 256.717 185.882 256.717 184.453V184.165C256.717 182.736 255.558 181.577 254.129 181.577H253.841C252.412 181.577 251.254 182.736 251.254 184.165Z" fill="#7D97F1"/>
<path d="M251.254 162.315V162.603C251.254 164.032 252.412 165.19 253.841 165.19H254.129C255.558 165.19 256.717 164.032 256.717 162.603V162.315C256.717 160.886 255.558 159.727 254.129 159.727H253.841C252.412 159.727 251.254 160.886 251.254 162.315Z" fill="#7D97F1"/>
<path d="M251.254 140.465V140.753C251.254 142.182 252.412 143.34 253.841 143.34H254.129C255.558 143.34 256.717 142.182 256.717 140.753V140.465C256.717 139.036 255.558 137.877 254.129 137.877H253.841C252.412 137.877 251.254 139.036 251.254 140.465Z" fill="#7D97F1"/>
<path d="M273.104 337.125V337.413C273.104 338.842 274.262 340 275.691 340H275.979C277.408 340 278.567 338.842 278.567 337.413V337.125C278.567 335.696 277.408 334.537 275.979 334.537H275.691C274.262 334.537 273.104 335.696 273.104 337.125Z" fill="#7D97F1"/>
<path d="M294.179 337.125V337.413C294.179 338.842 295.337 340 296.766 340H297.054C298.483 340 299.642 338.842 299.642 337.413V337.125C299.642 335.696 298.483 334.537 297.054 334.537H296.766C295.337 334.537 294.179 335.696 294.179 337.125Z" fill="#7D97F1"/>
<path d="M315.252 337.125V337.413C315.252 338.842 316.41 340 317.839 340H318.127C319.556 340 320.715 338.842 320.715 337.413V337.125C320.715 335.696 319.556 334.537 318.127 334.537H317.839C316.41 334.537 315.252 335.696 315.252 337.125Z" fill="#7D97F1"/>
<path d="M273.104 315.273V315.561C273.104 316.99 274.262 318.148 275.691 318.148H275.979C277.408 318.148 278.567 316.99 278.567 315.561V315.273C278.567 313.844 277.408 312.685 275.979 312.685H275.691C274.262 312.685 273.104 313.844 273.104 315.273Z" fill="#7D97F1"/>
<path d="M294.179 315.273V315.561C294.179 316.99 295.337 318.148 296.766 318.148H297.054C298.483 318.148 299.642 316.99 299.642 315.561V315.273C299.642 313.844 298.483 312.685 297.054 312.685H296.766C295.337 312.685 294.179 313.844 294.179 315.273Z" fill="#7D97F1"/>
<path d="M315.252 315.273V315.561C315.252 316.99 316.41 318.148 317.839 318.148H318.127C319.556 318.148 320.715 316.99 320.715 315.561V315.273C320.715 313.844 319.556 312.685 318.127 312.685H317.839C316.41 312.685 315.252 313.844 315.252 315.273Z" fill="#7D97F1"/>
<path d="M273.104 293.423V293.711C273.104 295.14 274.262 296.298 275.691 296.298H275.979C277.408 296.298 278.567 295.14 278.567 293.711V293.423C278.567 291.994 277.408 290.835 275.979 290.835H275.691C274.262 290.835 273.104 291.994 273.104 293.423Z" fill="#7D97F1"/>
<path d="M294.179 293.423V293.711C294.179 295.14 295.337 296.298 296.766 296.298H297.054C298.483 296.298 299.642 295.14 299.642 293.711V293.423C299.642 291.994 298.483 290.835 297.054 290.835H296.766C295.337 290.835 294.179 291.994 294.179 293.423Z" fill="#7D97F1"/>
<path d="M315.252 293.423V293.711C315.252 295.14 316.41 296.298 317.839 296.298H318.127C319.556 296.298 320.715 295.14 320.715 293.711V293.423C320.715 291.994 319.556 290.835 318.127 290.835H317.839C316.41 290.835 315.252 291.994 315.252 293.423Z" fill="#7D97F1"/>
<path d="M273.104 271.573V271.861C273.104 273.29 274.262 274.448 275.691 274.448H275.979C277.408 274.448 278.567 273.29 278.567 271.861V271.573C278.567 270.144 277.408 268.985 275.979 268.985H275.691C274.262 268.985 273.104 270.144 273.104 271.573Z" fill="#7D97F1"/>
<path d="M294.179 271.573V271.861C294.179 273.29 295.337 274.448 296.766 274.448H297.054C298.483 274.448 299.642 273.29 299.642 271.861V271.573C299.642 270.144 298.483 268.985 297.054 268.985H296.766C295.337 268.985 294.179 270.144 294.179 271.573Z" fill="#7D97F1"/>
<path d="M315.252 271.573V271.861C315.252 273.29 316.41 274.448 317.839 274.448H318.127C319.556 274.448 320.715 273.29 320.715 271.861V271.573C320.715 270.144 319.556 268.985 318.127 268.985H317.839C316.41 268.985 315.252 270.144 315.252 271.573Z" fill="#7D97F1"/>
<path d="M273.104 249.723V250.011C273.104 251.44 274.262 252.598 275.691 252.598H275.979C277.408 252.598 278.567 251.44 278.567 250.011V249.723C278.567 248.294 277.408 247.135 275.979 247.135H275.691C274.262 247.135 273.104 248.294 273.104 249.723Z" fill="#7D97F1"/>
<path d="M294.179 249.723V250.011C294.179 251.44 295.337 252.598 296.766 252.598H297.054C298.483 252.598 299.642 251.44 299.642 250.011V249.723C299.642 248.294 298.483 247.135 297.054 247.135H296.766C295.337 247.135 294.179 248.294 294.179 249.723Z" fill="#7D97F1"/>
<path d="M315.252 249.723V250.011C315.252 251.44 316.41 252.598 317.839 252.598H318.127C319.556 252.598 320.715 251.44 320.715 250.011V249.723C320.715 248.294 319.556 247.135 318.127 247.135H317.839C316.41 247.135 315.252 248.294 315.252 249.723Z" fill="#7D97F1"/>
<path d="M273.104 227.871V228.159C273.104 229.588 274.262 230.746 275.691 230.746H275.979C277.408 230.746 278.567 229.588 278.567 228.159V227.871C278.567 226.442 277.408 225.283 275.979 225.283H275.691C274.262 225.283 273.104 226.442 273.104 227.871Z" fill="#7D97F1"/>
<path d="M294.179 227.871V228.159C294.179 229.588 295.337 230.746 296.766 230.746H297.054C298.483 230.746 299.642 229.588 299.642 228.159V227.871C299.642 226.442 298.483 225.283 297.054 225.283H296.766C295.337 225.283 294.179 226.442 294.179 227.871Z" fill="#7D97F1"/>
<path d="M315.252 227.871V228.159C315.252 229.588 316.41 230.746 317.839 230.746H318.127C319.556 230.746 320.715 229.588 320.715 228.159V227.871C320.715 226.442 319.556 225.283 318.127 225.283H317.839C316.41 225.283 315.252 226.442 315.252 227.871Z" fill="#7D97F1"/>
<path d="M273.104 206.02V206.308C273.104 207.737 274.262 208.895 275.691 208.895H275.979C277.408 208.895 278.567 207.737 278.567 206.308V206.02C278.567 204.591 277.408 203.432 275.979 203.432H275.691C274.262 203.432 273.104 204.591 273.104 206.02Z" fill="#7D97F1"/>
<path d="M294.179 206.02V206.308C294.179 207.737 295.337 208.895 296.766 208.895H297.054C298.483 208.895 299.642 207.737 299.642 206.308V206.02C299.642 204.591 298.483 203.432 297.054 203.432H296.766C295.337 203.432 294.179 204.591 294.179 206.02Z" fill="#7D97F1"/>
<path d="M315.252 206.02V206.308C315.252 207.737 316.41 208.895 317.839 208.895H318.127C319.556 208.895 320.715 207.737 320.715 206.308V206.02C320.715 204.591 319.556 203.432 318.127 203.432H317.839C316.41 203.432 315.252 204.591 315.252 206.02Z" fill="#7D97F1"/>
<path d="M273.104 184.165V184.453C273.104 185.882 274.262 187.04 275.691 187.04H275.979C277.408 187.04 278.567 185.882 278.567 184.453V184.165C278.567 182.736 277.408 181.577 275.979 181.577H275.691C274.262 181.577 273.104 182.736 273.104 184.165Z" fill="#7D97F1"/>
<path d="M294.179 184.165V184.453C294.179 185.882 295.337 187.04 296.766 187.04H297.054C298.483 187.04 299.642 185.882 299.642 184.453V184.165C299.642 182.736 298.483 181.577 297.054 181.577H296.766C295.337 181.577 294.179 182.736 294.179 184.165Z" fill="#7D97F1"/>
<path d="M315.252 184.165V184.453C315.252 185.882 316.41 187.04 317.839 187.04H318.127C319.556 187.04 320.715 185.882 320.715 184.453V184.165C320.715 182.736 319.556 181.577 318.127 181.577H317.839C316.41 181.577 315.252 182.736 315.252 184.165Z" fill="#7D97F1"/>
<path d="M273.104 162.315V162.603C273.104 164.032 274.262 165.19 275.691 165.19H275.979C277.408 165.19 278.567 164.032 278.567 162.603V162.315C278.567 160.886 277.408 159.727 275.979 159.727H275.691C274.262 159.727 273.104 160.886 273.104 162.315Z" fill="#7D97F1"/>
<path d="M294.179 162.315V162.603C294.179 164.032 295.337 165.19 296.766 165.19H297.054C298.483 165.19 299.642 164.032 299.642 162.603V162.315C299.642 160.886 298.483 159.727 297.054 159.727H296.766C295.337 159.727 294.179 160.886 294.179 162.315Z" fill="#7D97F1"/>
<path d="M315.252 162.315V162.603C315.252 164.032 316.41 165.19 317.839 165.19H318.127C319.556 165.19 320.715 164.032 320.715 162.603V162.315C320.715 160.886 319.556 159.727 318.127 159.727H317.839C316.41 159.727 315.252 160.886 315.252 162.315Z" fill="#7D97F1"/>
<path d="M273.104 140.465V140.753C273.104 142.182 274.262 143.34 275.691 143.34H275.979C277.408 143.34 278.567 142.182 278.567 140.753V140.465C278.567 139.036 277.408 137.877 275.979 137.877H275.691C274.262 137.877 273.104 139.036 273.104 140.465Z" fill="#7D97F1"/>
<path d="M294.179 140.465V140.753C294.179 142.182 295.337 143.34 296.766 143.34H297.054C298.483 143.34 299.642 142.182 299.642 140.753V140.465C299.642 139.036 298.483 137.877 297.054 137.877H296.766C295.337 137.877 294.179 139.036 294.179 140.465Z" fill="#7D97F1"/>
<path d="M315.252 140.465V140.753C315.252 142.182 316.41 143.34 317.839 143.34H318.127C319.556 143.34 320.715 142.182 320.715 140.753V140.465C320.715 139.036 319.556 137.877 318.127 137.877H317.839C316.41 137.877 315.252 139.036 315.252 140.465Z" fill="#7D97F1"/>
</g>
<defs>
<clipPath id="clip0_0_3">
<rect width="1200" height="328" fill="white" transform="translate(0 1200) rotate(-90)"/>
</clipPath>
</defs>
</svg>
