<svg width="200" height="200" viewBox="0 0 200 200" fill="none" xmlns="http://www.w3.org/2000/svg">
<path d="M153.029 163.506C149.133 167.666 144.668 171.259 139.767 174.177C139.654 174.246 139.54 174.31 139.425 174.377L131.49 167.373C131.574 167.296 131.666 167.21 131.765 167.114C137.678 161.516 167.029 122.371 168.985 112.838C168.85 113.632 170.75 144.776 153.029 163.506Z" fill="#699CFF"/>
<path d="M141.298 175.528C141.148 175.564 140.995 175.597 140.842 175.628L134.889 170.373C135.005 170.333 135.141 170.285 135.297 170.231C137.851 169.329 145.458 166.607 153.029 163.506C161.163 160.172 169.259 156.405 171 153.992C170.627 154.553 159.122 171.553 141.298 175.528Z" fill="#699CFF"/>
<path d="M67.2882 50.9489V78.5459C62.8911 79.6995 58.2873 79.8319 53.8309 78.9328C49.3744 78.0337 45.1842 76.127 41.5826 73.3596C37.981 70.5921 35.064 67.0376 33.056 62.9695C31.048 58.9014 30.0025 54.4281 30 49.8939C30 49.0845 30.0326 48.2836 30.0978 47.4911H46.4123C47.1945 47.4919 47.9648 47.3006 48.6554 46.9342C49.3459 46.5678 49.9355 46.0376 50.3719 45.3902C50.8084 44.7429 51.0784 43.9984 51.1581 43.2223C51.2378 42.4463 51.1247 41.6627 50.8289 40.9406H57.2488C58.567 40.9401 59.8724 41.1986 61.0904 41.7014C62.3085 42.2041 63.4152 42.9412 64.3475 43.8706C65.2798 44.8001 66.0194 45.9035 66.5239 47.118C67.0285 48.3325 67.2882 49.6343 67.2882 50.9489Z" fill="#699CFF"/>
<path d="M142.102 57.8196H141.221V33.8645C141.221 32.0438 140.859 30.2409 140.156 28.5588C139.454 26.8767 138.424 25.3483 137.126 24.0608C135.828 22.7734 134.287 21.7521 132.59 21.0554C130.894 20.3586 129.076 20 127.24 20H76.0642C72.3564 20 68.8004 21.4607 66.1786 24.0608C63.5567 26.6609 62.0838 30.1874 62.0838 33.8645V165.284C62.0838 168.961 63.5567 172.487 66.1785 175.088C68.8003 177.688 72.3563 179.148 76.0641 179.148H127.24C130.948 179.148 134.504 177.688 137.126 175.088C139.748 172.487 141.221 168.961 141.221 165.284V74.8712H142.102L142.102 57.8196Z" fill="#111111"/>
<path d="M138.245 33.9619V165.188C138.245 167.934 137.145 170.568 135.187 172.509C133.229 174.451 130.573 175.542 127.804 175.542H76.3823C73.6132 175.542 70.9576 174.451 68.9995 172.509C67.0415 170.568 65.9415 167.934 65.9414 165.188V33.9619C65.9415 31.2158 67.0415 28.5821 68.9996 26.6403C70.9576 24.6985 73.6132 23.6076 76.3823 23.6075H82.6204C82.3138 24.3545 82.1971 25.1648 82.2805 25.967C82.3638 26.7693 82.6446 27.5389 83.0983 28.2082C83.5519 28.8775 84.1645 29.4261 84.8821 29.8055C85.5996 30.185 86.4003 30.3838 87.2135 30.3843H116.532C117.345 30.3837 118.146 30.185 118.863 29.8055C119.581 29.4261 120.193 28.8775 120.647 28.2082C121.101 27.5389 121.381 26.7692 121.465 25.967C121.548 25.1648 121.431 24.3545 121.125 23.6075H127.804C130.573 23.6076 133.229 24.6985 135.187 26.6403C137.145 28.5821 138.245 31.2158 138.245 33.9619Z" fill="white"/>
<path d="M79.1232 35.7787C78.1966 35.7787 77.279 35.9597 76.4229 36.3113C75.5668 36.663 74.789 37.1784 74.1337 37.8282C73.4785 38.478 72.9588 39.2494 72.6042 40.0984C72.2496 40.9474 72.067 41.8574 72.067 42.7763C72.067 43.6953 72.2495 44.6052 72.6041 45.4542C72.9587 46.3032 73.4785 47.0746 74.1337 47.7244C74.7889 48.3742 75.5668 48.8897 76.4229 49.2413C77.279 49.593 78.1965 49.774 79.1231 49.774H79.1232C80.9946 49.774 82.7894 49.0368 84.1126 47.7244C85.4359 46.4121 86.1793 44.6322 86.1793 42.7764C86.1793 40.9205 85.4359 39.1406 84.1126 37.8283C82.7894 36.5159 80.9946 35.7787 79.1232 35.7787Z" fill="#F2F2F2"/>
<path d="M130.355 48.6799H93.3104C92.8426 48.6799 92.3939 48.4956 92.0631 48.1675C91.7322 47.8394 91.5464 47.3944 91.5464 46.9305C91.5464 46.4665 91.7322 46.0215 92.0631 45.6934C92.3939 45.3653 92.8426 45.181 93.3104 45.181H130.355C130.823 45.181 131.272 45.3653 131.602 45.6934C131.933 46.0215 132.119 46.4665 132.119 46.9305C132.119 47.3944 131.933 47.8394 131.602 48.1675C131.272 48.4956 130.823 48.6799 130.355 48.6799Z" fill="#F2F2F2"/>
<path d="M104.997 41.2453H93.3104C92.8426 41.2453 92.3939 41.061 92.0631 40.7329C91.7322 40.4048 91.5464 39.9599 91.5464 39.4959C91.5464 39.0319 91.7322 38.5869 92.0631 38.2589C92.3939 37.9308 92.8426 37.7465 93.3104 37.7465H104.997C105.465 37.7465 105.914 37.9308 106.244 38.2589C106.575 38.5869 106.761 39.0319 106.761 39.4959C106.761 39.9599 106.575 40.4048 106.244 40.7329C105.914 41.061 105.465 41.2453 104.997 41.2453Z" fill="#F2F2F2"/>
<path d="M79.1232 65.0807C78.1966 65.0807 77.279 65.2617 76.4229 65.6133C75.5668 65.965 74.789 66.4804 74.1337 67.1302C73.4785 67.78 72.9588 68.5514 72.6042 69.4004C72.2496 70.2494 72.067 71.1594 72.067 72.0783C72.067 72.9973 72.2495 73.9072 72.6041 74.7562C72.9587 75.6052 73.4785 76.3766 74.1337 77.0264C74.7889 77.6762 75.5668 78.1917 76.4229 78.5434C77.279 78.895 78.1965 79.076 79.1231 79.076H79.1232C80.9946 79.076 82.7894 78.3388 84.1126 77.0265C85.4359 75.7141 86.1793 73.9343 86.1793 72.0784C86.1793 70.2225 85.4359 68.4426 84.1126 67.1303C82.7894 65.8179 80.9946 65.0807 79.1232 65.0807Z" fill="#F2F2F2"/>
<path d="M130.355 77.9823H93.3104C92.8426 77.9823 92.3939 77.798 92.0631 77.47C91.7322 77.1419 91.5464 76.6969 91.5464 76.2329C91.5464 75.769 91.7322 75.324 92.0631 74.9959C92.3939 74.6678 92.8426 74.4835 93.3104 74.4835H130.355C130.823 74.4835 131.272 74.6678 131.602 74.9959C131.933 75.324 132.119 75.769 132.119 76.2329C132.119 76.6969 131.933 77.1419 131.602 77.47C131.272 77.798 130.823 77.9823 130.355 77.9823Z" fill="#F2F2F2"/>
<path d="M104.997 70.5478H93.3104C92.8426 70.5478 92.3939 70.3635 92.0631 70.0354C91.7322 69.7073 91.5464 69.2623 91.5464 68.7984C91.5464 68.3344 91.7322 67.8894 92.0631 67.5613C92.3939 67.2333 92.8426 67.049 93.3104 67.049H104.997C105.465 67.049 105.914 67.2333 106.244 67.5613C106.575 67.8894 106.761 68.3344 106.761 68.7984C106.761 69.2623 106.575 69.7073 106.244 70.0354C105.914 70.3635 105.465 70.5478 104.997 70.5478Z" fill="#F2F2F2"/>
<path d="M79.1232 123.686C77.2518 123.686 75.457 124.423 74.1337 125.735C72.8105 127.048 72.067 128.827 72.067 130.683C72.067 132.539 72.8104 134.319 74.1337 135.631C75.457 136.944 77.2517 137.681 79.1231 137.681H79.1232C80.9946 137.681 82.7894 136.944 84.1126 135.631C85.4359 134.319 86.1793 132.539 86.1793 130.683C86.1793 128.827 85.4359 127.048 84.1126 125.735C82.7894 124.423 80.9946 123.686 79.1232 123.686Z" fill="#F2F2F2"/>
<path d="M130.355 136.588H93.3104C92.8426 136.588 92.3939 136.404 92.0631 136.075C91.7322 135.747 91.5464 135.302 91.5464 134.838C91.5464 134.374 91.7322 133.929 92.0631 133.601C92.3939 133.273 92.8426 133.089 93.3104 133.089H130.355C130.823 133.089 131.272 133.273 131.602 133.601C131.933 133.929 132.119 134.374 132.119 134.838C132.119 135.302 131.933 135.747 131.602 136.075C131.272 136.404 130.823 136.588 130.355 136.588Z" fill="#F2F2F2"/>
<path d="M104.997 129.152H93.3104C92.8426 129.152 92.3939 128.968 92.0631 128.64C91.7322 128.312 91.5464 127.867 91.5464 127.403C91.5464 126.939 91.7322 126.494 92.0631 126.166C92.3939 125.838 92.8426 125.653 93.3104 125.653H104.997C105.465 125.653 105.914 125.838 106.244 126.166C106.575 126.494 106.761 126.939 106.761 127.403C106.761 127.867 106.575 128.312 106.244 128.64C105.914 128.968 105.465 129.152 104.997 129.152Z" fill="#F2F2F2"/>
<path d="M79.1232 152.989C78.1966 152.989 77.279 153.17 76.4229 153.521C75.5668 153.873 74.789 154.388 74.1337 155.038C73.4785 155.688 72.9588 156.459 72.6042 157.308C72.2496 158.157 72.067 159.067 72.067 159.986C72.067 160.905 72.2495 161.815 72.6041 162.664C72.9587 163.513 73.4785 164.285 74.1337 164.934C74.7889 165.584 75.5668 166.1 76.4229 166.451C77.279 166.803 78.1965 166.984 79.1231 166.984H79.1232C80.9946 166.984 82.7894 166.247 84.1126 164.934C85.4359 163.622 86.1793 161.842 86.1793 159.986C86.1793 158.13 85.4359 156.351 84.1126 155.038C82.7894 153.726 80.9946 152.989 79.1232 152.989Z" fill="#F2F2F2"/>
<path d="M130.355 165.891H93.3104C92.8426 165.891 92.3939 165.706 92.0631 165.378C91.7322 165.05 91.5464 164.605 91.5464 164.141C91.5464 163.677 91.7322 163.232 92.0631 162.904C92.3939 162.576 92.8426 162.392 93.3104 162.392H130.355C130.823 162.392 131.272 162.576 131.602 162.904C131.933 163.232 132.119 163.677 132.119 164.141C132.119 164.605 131.933 165.05 131.602 165.378C131.272 165.706 130.823 165.891 130.355 165.891Z" fill="#F2F2F2"/>
<path d="M104.997 158.455H93.3104C92.8426 158.455 92.3939 158.271 92.0631 157.943C91.7322 157.615 91.5464 157.17 91.5464 156.706C91.5464 156.242 91.7322 155.797 92.0631 155.469C92.3939 155.141 92.8426 154.956 93.3104 154.956H104.997C105.465 154.956 105.914 155.141 106.244 155.469C106.575 155.797 106.761 156.242 106.761 156.706C106.761 157.17 106.575 157.615 106.244 157.943C105.914 158.271 105.465 158.455 104.997 158.455Z" fill="#F2F2F2"/>
<path d="M163.188 59.4554L153.556 52.109L146.189 61.7143L155.821 69.0607L163.188 59.4554Z" fill="#699CFF"/>
</svg>
