<svg width="200" height="201" viewBox="0 0 200 201" fill="none" xmlns="http://www.w3.org/2000/svg">
<path d="M25.0494 76.8012L14.8221 69L6.99999 79.2L17.2273 87.0012L25.0494 76.8012Z" fill="#699CFF"/>
<path d="M25.2384 152.601L16.0307 83.7569L150.89 62.7154L160.098 131.56L25.2384 152.601Z" fill="#F1F1F1" stroke="#111111" stroke-width="0.563637"/>
<path d="M148.055 68.9485L20.3833 88.8685L28.1279 146.774L155.8 126.854L148.055 68.9485Z" fill="white"/>
<path d="M16.193 85.4107L15.4366 79.7558L150.296 58.7143L151.052 64.3692L16.193 85.4107Z" fill="#E5E5E5" stroke="#111111" stroke-width="0.563637"/>
<path d="M19.885 83.6701C20.4801 83.6701 20.9625 83.1492 20.9625 82.5065C20.9625 81.8639 20.4801 81.3429 19.885 81.3429C19.29 81.3429 18.8076 81.8639 18.8076 82.5065C18.8076 83.1492 19.29 83.6701 19.885 83.6701Z" fill="white"/>
<path d="M23.9323 83.0398C24.5273 83.0398 25.0098 82.5188 25.0098 81.8761C25.0098 81.2335 24.5273 80.7125 23.9323 80.7125C23.3372 80.7125 22.8548 81.2335 22.8548 81.8761C22.8548 82.5188 23.3372 83.0398 23.9323 83.0398Z" fill="white"/>
<path d="M27.9795 82.4078C28.5746 82.4078 29.057 81.8868 29.057 81.2442C29.057 80.6015 28.5746 80.0806 27.9795 80.0806C27.3844 80.0806 26.902 80.6015 26.902 81.2442C26.902 81.8868 27.3844 82.4078 27.9795 82.4078Z" fill="white"/>
<path d="M49.6777 93.0594C50.2727 93.0594 50.7552 92.5384 50.7552 91.8958C50.7552 91.2531 50.2727 90.7322 49.6777 90.7322C49.0826 90.7322 48.6002 91.2531 48.6002 91.8958C48.6002 92.5384 49.0826 93.0594 49.6777 93.0594Z" fill="white"/>
<path d="M53.7669 93.0594C54.3619 93.0594 54.8444 92.5384 54.8444 91.8958C54.8444 91.2531 54.3619 90.7322 53.7669 90.7322C53.1718 90.7322 52.6894 91.2531 52.6894 91.8958C52.6894 92.5384 53.1718 93.0594 53.7669 93.0594Z" fill="white"/>
<path d="M57.8564 93.0594C58.4514 93.0594 58.9338 92.5384 58.9338 91.8958C58.9338 91.2531 58.4514 90.7322 57.8564 90.7322C57.2613 90.7322 56.7789 91.2531 56.7789 91.8958C56.7789 92.5384 57.2613 93.0594 57.8564 93.0594Z" fill="white"/>
<ellipse cx="150.546" cy="121.986" rx="7.0611" ry="7.08383" fill="#699CFF"/>
<path d="M161.722 140.173C161.722 138.846 161.434 137.531 160.875 136.305C160.316 135.079 159.497 133.964 158.465 133.026C157.432 132.087 156.206 131.343 154.857 130.835C153.508 130.327 152.062 130.065 150.601 130.065C149.141 130.065 147.695 130.327 146.346 130.835C144.997 131.343 143.771 132.087 142.738 133.026C141.705 133.964 140.886 135.079 140.328 136.305C139.769 137.531 139.481 138.846 139.481 140.173L150.601 140.173H161.722Z" fill="#699CFF"/>
<path d="M42.9185 140.886C62.0077 134.093 45.3055 122.421 61.8884 110.78C79.0623 98.7235 89.8985 136.1 106.152 122.829C116.689 114.226 121.397 85.5328 132.082 77.1137" stroke="#699CFF" stroke-width="2" stroke-linecap="round"/>
</svg>
