<svg width="171" height="170" viewBox="0 0 171 170" fill="none" xmlns="http://www.w3.org/2000/svg">
<path d="M72.3081 46.9959C73.6816 46.9949 75.0363 47.3146 76.2637 47.9295C77.491 48.5444 78.557 49.4374 79.3762 50.537L84.4523 43.9177L69.2215 32.2998L57.5726 47.4899L64.137 52.4972C64.794 50.8723 65.9229 49.4804 67.3789 48.5001C68.8348 47.5199 70.5514 46.9961 72.3081 46.9959Z" fill="#699CFF"/>
<path d="M143.703 103.495H168.68C169.724 107.453 169.844 111.597 169.03 115.609C168.216 119.62 166.491 123.392 163.986 126.634C161.481 129.876 158.264 132.502 154.582 134.31C150.901 136.117 146.852 137.058 142.748 137.06C142.016 137.06 141.291 137.031 140.574 136.972V122.287C140.575 121.583 140.401 120.889 140.07 120.268C139.738 119.646 139.258 119.115 138.672 118.722C138.087 118.33 137.413 118.087 136.71 118.015C136.008 117.943 135.299 118.045 134.645 118.311V112.532C134.645 111.346 134.879 110.171 135.334 109.074C135.789 107.978 136.456 106.981 137.297 106.142C138.138 105.303 139.137 104.637 140.236 104.183C141.335 103.729 142.513 103.495 143.703 103.495Z" fill="#699CFF"/>
<path d="M16.6914 112.017L7.99817 105.385L1.34936 114.055L10.0426 120.687L16.6914 112.017Z" fill="#699CFF"/>
<path d="M21.9526 129.388L14.1263 70.8723L128.755 52.9874L136.581 111.503L21.9526 129.388Z" fill="#F1F1F1" stroke="#111111" stroke-width="0.481225"/>
<path d="M126.344 58.2843L17.8231 75.2164L24.406 124.436L132.927 107.504L126.344 58.2843Z" fill="white"/>
<path d="M14.2633 72.276L13.6207 67.4714L128.249 49.5865L128.892 54.391L14.2633 72.276Z" fill="#E5E5E5" stroke="#111111" stroke-width="0.481225"/>
<path d="M17.4002 70.7975C17.906 70.7975 18.316 70.3547 18.316 69.8085C18.316 69.2622 17.906 68.8194 17.4002 68.8194C16.8944 68.8194 16.4843 69.2622 16.4843 69.8085C16.4843 70.3547 16.8944 70.7975 17.4002 70.7975Z" fill="white"/>
<path d="M20.8418 70.2618C21.3476 70.2618 21.7576 69.819 21.7576 69.2727C21.7576 68.7265 21.3476 68.2836 20.8418 68.2836C20.3359 68.2836 19.9259 68.7265 19.9259 69.2727C19.9259 69.819 20.3359 70.2618 20.8418 70.2618Z" fill="white"/>
<path d="M24.2815 69.7248C24.7873 69.7248 25.1973 69.282 25.1973 68.7358C25.1973 68.1895 24.7873 67.7467 24.2815 67.7467C23.7756 67.7467 23.3656 68.1895 23.3656 68.7358C23.3656 69.282 23.7756 69.7248 24.2815 69.7248Z" fill="white"/>
<path d="M39.3432 137.459V78.3357H155.16V137.459H39.3432Z" fill="#E6E6E6" stroke="#111111" stroke-width="0.481225"/>
<path d="M39.311 79.7295V74.9096H155.093V79.7295H39.311Z" fill="#E5E5E5" stroke="#111111" stroke-width="0.516425"/>
<path d="M42.7246 78.7786C43.2304 78.7786 43.6405 78.3358 43.6405 77.7895C43.6405 77.2433 43.2304 76.8005 42.7246 76.8005C42.2188 76.8005 41.8088 77.2433 41.8088 77.7895C41.8088 78.3358 42.2188 78.7786 42.7246 78.7786Z" fill="white"/>
<path d="M46.2006 78.7786C46.7065 78.7786 47.1165 78.3358 47.1165 77.7895C47.1165 77.2433 46.7065 76.8005 46.2006 76.8005C45.6948 76.8005 45.2848 77.2433 45.2848 77.7895C45.2848 78.3358 45.6948 78.7786 46.2006 78.7786Z" fill="white"/>
<path d="M49.6767 78.7786C50.1825 78.7786 50.5926 78.3358 50.5926 77.7895C50.5926 77.2433 50.1825 76.8005 49.6767 76.8005C49.1709 76.8005 48.7609 77.2433 48.7609 77.7895C48.7609 78.3358 49.1709 78.7786 49.6767 78.7786Z" fill="white"/>
<path d="M42.668 132.696V83.4471H151.834V132.696H42.668Z" fill="white" stroke="#111111" stroke-width="0.481225"/>
<ellipse cx="128.463" cy="103.366" rx="6.00193" ry="6.02126" fill="#699CFF"/>
<path d="M137.962 118.825C137.962 117.697 137.718 116.58 137.243 115.537C136.768 114.495 136.072 113.548 135.194 112.75C134.316 111.952 133.274 111.319 132.127 110.887C130.98 110.456 129.751 110.233 128.51 110.233C127.269 110.233 126.04 110.456 124.893 110.887C123.746 111.319 122.704 111.952 121.826 112.75C120.949 113.548 120.252 114.495 119.777 115.537C119.302 116.58 119.058 117.697 119.058 118.825L128.51 118.825H137.962Z" fill="#699CFF"/>
<path d="M72.2012 119.168H56.7587V120.421H72.2012V119.168Z" fill="#E6E6E6"/>
<path d="M74.1266 122.426H54.6922V123.679H74.1266V122.426Z" fill="#E6E6E6"/>
<path d="M71.676 100.126H56.3907V111.996H71.676V100.126Z" fill="#699CFF"/>
<path d="M73.2043 111.064H58.5305C58.3684 111.064 58.213 110.993 58.0983 110.865C57.9837 110.738 57.9192 110.566 57.9191 110.386V99.1935C57.9192 99.0137 57.9837 98.8413 58.0983 98.7141C58.213 98.5869 58.3684 98.5154 58.5305 98.5152H73.2043C73.3664 98.5154 73.5218 98.5869 73.6364 98.7141C73.7511 98.8413 73.8155 99.0137 73.8157 99.1935V110.386C73.8155 110.566 73.7511 110.738 73.6364 110.865C73.5218 110.993 73.3664 111.064 73.2043 111.064ZM58.5305 99.1935V110.386H73.2047L73.2043 99.1935H58.5305Z" fill="#3F3D56"/>
<path d="M71.5226 98.7691H70.9112C70.9112 97.2849 70.3798 95.8615 69.4338 94.812C68.4879 93.7625 67.2049 93.1729 65.8671 93.1729C64.5293 93.1729 63.2463 93.7625 62.3003 94.812C61.3544 95.8615 60.823 97.2849 60.823 98.7691H60.2115C60.2115 97.105 60.8074 95.5091 61.868 94.3323C62.9286 93.1556 64.3671 92.4946 65.8671 92.4946C67.367 92.4946 68.8055 93.1556 69.8662 94.3323C70.9268 95.5091 71.5226 97.105 71.5226 98.7691Z" fill="#3F3D56"/>
<path d="M67.3963 103.432C67.3966 103.137 67.3273 102.847 67.1955 102.59C67.0636 102.334 66.8736 102.12 66.6443 101.97C66.415 101.82 66.1544 101.739 65.8882 101.735C65.6221 101.731 65.3596 101.804 65.1267 101.947C64.8938 102.09 64.6987 102.298 64.5606 102.55C64.4225 102.803 64.3462 103.091 64.3393 103.386C64.3323 103.681 64.395 103.973 64.5211 104.234C64.6472 104.494 64.8324 104.713 65.0582 104.869V106.689C65.0582 106.807 65.0791 106.924 65.1198 107.033C65.1605 107.142 65.2201 107.241 65.2953 107.324C65.3704 107.407 65.4596 107.473 65.5578 107.519C65.656 107.564 65.7613 107.587 65.8675 107.587C66.0822 107.587 66.288 107.492 66.4398 107.324C66.5916 107.156 66.6769 106.927 66.6769 106.689V104.869C66.8969 104.717 67.0784 104.505 67.2043 104.254C67.3301 104.003 67.3962 103.72 67.3963 103.432Z" fill="#3F3D56"/>
</svg>
