<svg width="200" height="200" viewBox="0 0 200 200" fill="none" xmlns="http://www.w3.org/2000/svg">
<path d="M153.965 76.9686H45.6144V169.684H153.965V76.9686Z" fill="white"/>
<path d="M154.28 170H45.2996V76.6522H154.28V170ZM45.9295 169.367H153.65V77.2851H45.9295V169.367Z" fill="#2C3131"/>
<path d="M113.333 95.0049H86.2455V169.683H113.333V95.0049Z" fill="#699CFF"/>
<path d="M113.333 95.0049H86.2455V169.683H113.333V95.0049Z" fill="#699CFF"/>
<path d="M160.264 68.4249H39.3151V95.0053H160.264V68.4249Z" fill="white"/>
<path d="M160.579 95.3222H39V68.109H160.579V95.3222ZM39.6299 94.6894H159.949V68.7419H39.6299V94.6894Z" fill="#2C3131"/>
<path d="M113.333 65.8936H86.2455V94.689H113.333V65.8936Z" fill="#699CFF"/>
<path d="M96.8893 40.7865C104.04 51.435 97.3027 68.5616 97.3027 68.5616C97.3027 68.5616 78.9729 68.4235 71.8226 57.775C64.6723 47.1266 71.4092 30 71.4092 30C71.4092 30 89.739 30.1381 96.8893 40.7865Z" fill="#699CFF"/>
<path d="M100.17 40.7865C93.0195 51.435 99.7565 68.5616 99.7565 68.5616C99.7565 68.5616 118.086 68.4235 125.237 57.775C132.387 47.1266 125.65 30 125.65 30C125.65 30 107.32 30.1381 100.17 40.7865Z" fill="#699CFF"/>
</svg>
